<?xml version="1.0" encoding="utf-8"?>
<!-- Generator: Adobe Illustrator 20.0.0, SVG Export Plug-In . SVG Version: 6.00 Build 0)  -->
<svg version="1.1" id="Capa_1" xmlns="http://www.w3.org/2000/svg" xmlns:xlink="http://www.w3.org/1999/xlink" x="0px" y="0px"
	 viewBox="0 0 60 60" style="enable-background:new 0 0 60 60;" xml:space="preserve">
<style type="text/css">
	.st0{fill:#FFFFFF;stroke:#001503;stroke-miterlimit:10;}
	<defs>
	 	<style>
		.st0{
			stroke-dasharray:2000;
			stroke-dashoffset:0;
			animation:dash 23s liner forwards;
			-webkit-animation:dash 23s linear forwards;
			-moz-animation:dash 23s linear forwards;
		}	
		@-webkit-keyframes dash{
			from{
				stroke-dashoffset:2000;
			}
				to{
				stroke-dashoffset:0;
			}
		}
		</style>
	 </defs>
</style>
<path class="st0" d="M53,28.4c0-0.1,0-0.1,0-0.2c0,0,0,0,0,0c0-12.4-9.8-22.5-22.1-23V3.3c0-0.5-0.4-0.9-0.9-0.9s-0.9,0.4-0.9,0.9
	v1.9C16.8,5.7,7,15.8,7,28.2c0,0,0,0,0,0c0,0.1,0,0.1,0,0.2c0,0.1,0,0.1,0,0.2c0,0,0.1,0.1,0.1,0.1c0,0.1,0.1,0.1,0.1,0.2
	c0,0,0,0,0,0c0,0,0.1,0,0.1,0.1C7.5,29,7.5,29,7.6,29c0.1,0,0.1,0,0.2,0c0,0,0.1,0,0.1,0c0,0,0,0,0,0c0.1,0,0.1,0,0.2,0
	c0,0,0.1,0,0.1,0c0.1,0,0.1-0.1,0.1-0.1c0.1,0,0.1-0.1,0.1-0.1c0,0,0,0,0,0c1.3-1.6,3-2.4,4.8-2.4s3.5,0.9,4.8,2.4c0,0,0,0,0.1,0
	c0,0,0,0.1,0.1,0.1c0,0,0.1,0,0.1,0.1c0,0,0.1,0.1,0.1,0.1c0.1,0,0.2,0,0.2,0c0,0,0.1,0,0.1,0c0,0,0,0,0,0c0,0,0.1,0,0.1,0
	c0.1,0,0.1,0,0.2-0.1c0,0,0.1,0,0.1-0.1c0,0,0.1,0,0.1-0.1c0,0,0,0,0.1-0.1c0,0,0,0,0.1-0.1c1.3-1.6,3-2.4,4.8-2.4
	c1.7,0,3.3,0.8,4.6,2.2V53c0,1.5-1.2,2.8-2.8,2.8s-2.8-1.2-2.8-2.8c0-0.5-0.4-0.9-0.9-0.9c-0.5,0-0.9,0.4-0.9,0.9
	c0,2.5,2.1,4.6,4.6,4.6s4.6-2.1,4.6-4.6V28.5c1.3-1.4,2.9-2.2,4.6-2.2c1.8,0,3.5,0.9,4.8,2.4c0,0,0,0,0.1,0c0,0,0,0.1,0.1,0.1
	c0,0,0.1,0,0.1,0.1c0,0,0.1,0.1,0.1,0.1c0.1,0,0.1,0,0.2,0c0,0,0.1,0,0.1,0c0,0,0,0,0,0c0,0,0.1,0,0.1,0c0.1,0,0.1,0,0.2-0.1
	c0,0,0.1,0,0.1-0.1c0,0,0.1,0,0.1-0.1c0,0,0,0,0.1-0.1c0,0,0,0,0.1-0.1c1.3-1.6,3-2.4,4.8-2.4c1.8,0,3.5,0.9,4.8,2.4c0,0,0,0,0,0
	c0.1,0.1,0.1,0.1,0.2,0.2c0,0,0.1,0,0.1,0.1c0.1,0,0.2,0.1,0.4,0.1l0,0l0,0c0.1,0,0.2,0,0.3-0.1c0,0,0.1,0,0.1-0.1
	c0,0,0.1,0,0.1-0.1c0,0,0,0,0,0c0,0,0.1-0.1,0.1-0.2c0,0,0.1-0.1,0.1-0.1C52.9,28.5,52.9,28.4,53,28.4z"/>
</svg>
